# xmcd
#
# Track frame offsets: 
#        150
#        17287
#        38250
#        58130
#        80672
#        100423
#        120980
#        130466
#        147687
#        171057
#        195557
#        226313
#
# Disc length: 3233 seconds
#
# Revision: 0
# Processed by: cddbd v1.5.2PL0 Copyright (c) Steve Scherf et al.
# Submitted via: ExactAudioCopy v0.95a5
#
DISCID=9a0c9f0c
DTITLE=Plain Ride - Oh The Flow
DYEAR=2003
DGENRE=Acid Jazz
TTITLE0=All Ears
TTITLE1=Speed Of Light
TTITLE2=Oh
TTITLE3=Last Of Our Days Together
TTITLE4=Welcome New Void
TTITLE5=Endless Chain Of Parties
TTITLE6=Lazy Tyrants
TTITLE7=Dream Cities
TTITLE8=Your Turn Will Come
TTITLE9=God Of Rain
TTITLE10=Funeral House
TTITLE11=Nothing Left To Fear
EXTD=
EXTT0=
EXTT1=
EXTT2=
EXTT3=
EXTT4=
EXTT5=
EXTT6=
EXTT7=
EXTT8=
EXTT9=
EXTT10=
EXTT11=
PLAYORDER=
